<svg width="18" height="18" viewBox="0 0 18 18" fill="none" xmlns="http://www.w3.org/2000/svg">
<g opacity="0.6">
<path d="M16.9745 14.8805C16.9745 15.1865 16.9065 15.501 16.762 15.807C16.6175 16.113 16.4305 16.402 16.184 16.674C15.7675 17.133 15.3085 17.4645 14.79 17.677C14.28 17.8895 13.7275 18 13.1325 18C12.2655 18 11.339 17.796 10.3615 17.3795C9.384 16.963 8.4065 16.402 7.4375 15.6965C6.46 14.9825 5.5335 14.192 4.6495 13.3165C3.774 12.4325 2.9835 11.506 2.278 10.537C1.581 9.568 1.02 8.599 0.612 7.6385C0.204 6.6695 0 5.743 0 4.859C0 4.281 0.102 3.7285 0.306 3.2185C0.51 2.7 0.833 2.224 1.2835 1.799C1.8275 1.2635 2.4225 1 3.0515 1C3.2895 1 3.5275 1.051 3.74 1.153C3.961 1.255 4.1565 1.408 4.3095 1.629L6.2815 4.4085C6.4345 4.621 6.545 4.8165 6.6215 5.0035C6.698 5.182 6.7405 5.3605 6.7405 5.522C6.7405 5.726 6.681 5.93 6.562 6.1255C6.4515 6.321 6.29 6.525 6.086 6.729L5.44 7.4005C5.3465 7.494 5.304 7.6045 5.304 7.7405C5.304 7.8085 5.3125 7.868 5.3295 7.936C5.355 8.004 5.3805 8.055 5.3975 8.106C5.5505 8.3865 5.814 8.752 6.188 9.194C6.5705 9.636 6.9785 10.0865 7.4205 10.537C7.8795 10.9875 8.3215 11.404 8.772 11.7865C9.214 12.1605 9.5795 12.4155 9.8685 12.5685C9.911 12.5855 9.962 12.611 10.0215 12.6365C10.0895 12.662 10.1575 12.6705 10.234 12.6705C10.3785 12.6705 10.489 12.6195 10.5825 12.526L11.2285 11.8885C11.441 11.676 11.645 11.5145 11.8405 11.4125C12.036 11.2935 12.2315 11.234 12.444 11.234C12.6055 11.234 12.7755 11.268 12.9625 11.3445C13.1495 11.421 13.345 11.5315 13.5575 11.676L16.371 13.6735C16.592 13.8265 16.745 14.005 16.8385 14.2175C16.9235 14.43 16.9745 14.6425 16.9745 14.8805Z" fill="#A2A2A2"/>
<path d="M14.025 6.95C14.025 6.44 13.6255 5.658 13.0305 5.0205C12.4865 4.434 11.764 3.975 11.05 3.975" stroke="#A2A2A2" stroke-width="1.275" stroke-linecap="round" stroke-linejoin="round"/>
<path d="M17 6.95C17 3.6605 14.3395 1 11.05 1" stroke="#A2A2A2" stroke-width="1.275" stroke-linecap="round" stroke-linejoin="round"/>
</g>
</svg>
