<svg width="88" height="51" viewBox="0 0 88 51" fill="none" xmlns="http://www.w3.org/2000/svg">
<circle cx="15.7091" cy="12.8075" r="6.56483" fill="#FF5C79"/>
<circle cx="71.8228" cy="12.8075" r="6.56483" fill="#32C9F4"/>
<circle cx="43.9999" cy="11.8699" r="8.90941" fill="#8BC658"/>
<path d="M32.2775 14.4498V5.01568C32.2775 3.98732 31.9564 2.96667 31.2026 2.26712C30.469 1.58627 29.4639 0.870136 28.5262 0.929358C27.6835 0.982578 26.8228 1.66652 26.1943 2.30567C25.5215 2.98992 25.2438 3.94481 25.2438 4.90446V14.4498C25.2438 14.4498 24.4396 22.0215 27.2757 25.2349C29.3531 27.5885 34.4658 28.8299 34.4658 28.8299V40.2737C34.4658 40.5115 34.483 40.7481 34.5297 40.9813C34.6717 41.6898 35.06 43.2978 35.7944 44.1478C36.3804 44.8261 37.4868 45.3691 38.2138 45.6743C38.6766 45.8686 39.1763 45.9453 39.6782 45.9453H48.3445C48.9846 45.9453 49.621 45.8199 50.1859 45.5189C50.8145 45.184 51.636 44.6856 52.1283 44.1478C52.7843 43.4312 53.2736 42.1883 53.5405 41.3882C53.7069 40.8893 53.7695 40.3648 53.7695 39.8388V28.8299C53.7695 28.8299 59.0823 27.6677 61.194 25.2349C64.1595 21.8185 62.6789 13.7464 62.6789 13.7464V4.78888C62.6789 3.90137 62.4408 3.01893 61.8591 2.34859C61.2318 1.62554 60.3199 0.789707 59.3965 0.6949C58.2697 0.579208 57.1895 1.55949 56.4958 2.37844C55.9434 3.03048 55.7234 3.88191 55.7234 4.73644V13.5139C55.7234 14.1823 55.5841 14.8426 55.2534 15.4235C53.9389 17.7327 49.8629 23.6626 42.9844 22.9684C34.4658 22.1088 32.2775 14.4498 32.2775 14.4498Z" fill="#8BC658" stroke="#8BC658" stroke-width="0.156305"/>
<path d="M26.0508 1.18399C26.7719 0.628104 27.7843 -0.000726224 28.6821 -0.00895097C29.5993 -0.0173542 30.6401 0.61985 31.379 1.18279C32.0358 1.68314 32.3552 2.48641 32.3552 3.31204V16.9502C32.3552 16.9502 31.2535 23.0158 28.7602 25.7815C27.0899 27.6342 23.9087 28.9892 21.8762 29.7135C20.6552 30.1486 19.3459 30.2009 18.051 30.1437C15.8904 30.0483 12.4829 30.1918 10.7069 31.7992C9.84435 32.58 9.09612 33.9509 8.63098 34.9348C8.27222 35.6937 8.1109 36.5252 8.07757 37.3639L7.74743 45.6726C7.69022 47.1123 7.17264 48.5464 5.98357 49.3602C5.13373 49.9418 4.08165 50.4198 3.12611 50.165C2.72366 50.0578 2.28109 49.8106 1.85875 49.5172C0.556161 48.6124 0 47.0163 0 45.4303V36.5852C0 34.9696 0.260566 33.3579 0.935314 31.89C1.57594 30.4963 2.4928 28.7675 3.51687 27.657C6.06319 24.8959 8.32187 23.9898 11.9574 23.046C13.6957 22.5947 16.0714 22.5313 17.7909 22.56C19.2418 22.5842 20.7167 22.3398 21.9034 21.5046C22.3573 21.1852 22.8049 20.8269 23.1332 20.4671C23.799 19.7375 24.3998 18.5353 24.7543 17.7431C24.9866 17.2239 25.087 16.6587 25.087 16.0898V3.302C25.087 2.48232 25.4016 1.68443 26.0508 1.18399Z" fill="url(#paint0_linear_625_1148)"/>
<path d="M61.9492 1.18399C61.2281 0.628104 60.2157 -0.000726224 59.3179 -0.00895097C58.4007 -0.0173542 57.3599 0.61985 56.621 1.18279C55.9642 1.68314 55.6448 2.48641 55.6448 3.31204V16.9502C55.6448 16.9502 56.7465 23.0158 59.2398 25.7815C60.9101 27.6342 64.0913 28.9892 66.1238 29.7135C67.3448 30.1486 68.6541 30.2009 69.949 30.1437C72.1096 30.0483 75.5171 30.1918 77.2931 31.7992C78.1556 32.58 78.9039 33.9509 79.369 34.9348C79.7278 35.6937 79.8891 36.5252 79.9224 37.3639L80.2526 45.6726C80.3098 47.1123 80.8274 48.5464 82.0164 49.3602C82.8663 49.9418 83.9183 50.4198 84.8739 50.165C85.2763 50.0578 85.7189 49.8106 86.1412 49.5172C87.4438 48.6124 88 47.0163 88 45.4303V36.5852C88 34.9696 87.7394 33.3579 87.0647 31.89C86.4241 30.4963 85.5072 28.7675 84.4831 27.657C81.9368 24.8959 79.6781 23.9898 76.0426 23.046C74.3043 22.5947 71.9286 22.5313 70.2091 22.56C68.7582 22.5842 67.2833 22.3398 66.0966 21.5046C65.6427 21.1852 65.1951 20.8269 64.8668 20.4671C64.201 19.7375 63.6002 18.5353 63.2457 17.7431C63.0134 17.2239 62.913 16.6587 62.913 16.0898V3.302C62.913 2.48232 62.5984 1.68443 61.9492 1.18399Z" fill="url(#paint1_linear_625_1148)"/>
<defs>
<linearGradient id="paint0_linear_625_1148" x1="16.1776" y1="-0.00903326" x2="17.5844" y2="31.4865" gradientUnits="userSpaceOnUse">
<stop offset="0.192698" stop-color="#E85158" stop-opacity="0.97"/>
<stop offset="1" stop-color="#FF5C79"/>
</linearGradient>
<linearGradient id="paint1_linear_625_1148" x1="71.8224" y1="-0.0090332" x2="71.8224" y2="50.2352" gradientUnits="userSpaceOnUse">
<stop offset="0.0125998" stop-color="#278BB6"/>
<stop offset="0.560073" stop-color="#32C9F4"/>
</linearGradient>
</defs>
</svg>
